<svg width="353" height="353" viewBox="0 0 353 353" fill="none" xmlns="http://www.w3.org/2000/svg">
<path d="M348.548 270.475L336.479 268.76C335.545 265.799 334.357 262.929 332.926 260.175L340.251 250.418C341.799 248.355 341.596 245.469 339.773 243.645L326.447 230.308C324.622 228.482 321.731 228.278 319.668 229.83L309.923 237.158C307.173 235.727 304.307 234.54 301.352 233.605L299.638 221.523C299.276 218.968 297.089 217.069 294.509 217.069H275.664C273.083 217.069 270.897 218.968 270.535 221.523L268.821 233.605C265.865 234.54 262.999 235.727 260.249 237.158L251.802 230.805C264.481 216.867 272.357 199.666 274.624 181.085H276.817C279.678 181.085 281.998 178.765 281.998 175.904C281.998 173.042 279.679 170.722 276.817 170.722H275.297C275.299 170.426 275.308 170.131 275.308 169.834C275.308 161.793 274.255 153.814 272.18 146.119C271.434 143.357 268.592 141.721 265.828 142.467C263.065 143.212 261.43 146.056 262.175 148.818C264.013 155.634 264.946 162.704 264.946 169.834C264.946 192.049 256.093 212.725 240.019 228.054C239.99 228.082 239.961 228.11 239.932 228.139C239.278 228.793 223.861 244.339 219.221 260.602C218.197 264.195 217.598 269.572 217.247 274.748C217.2 275.027 217.173 275.313 217.173 275.605V275.897C216.977 279.091 216.872 282.148 216.816 284.593H202.121C201.556 277.437 200.625 262.999 200.896 248.084C201.041 240.078 201.495 233.487 202.14 228.066C208.873 227.04 216.173 225.253 221.363 222.141C230.775 216.498 232.766 205.054 228.721 197.908C225.534 192.277 217.712 187.89 206.16 194.052C200.252 197.203 196.145 204.425 193.603 216.128C193.422 216.96 193.249 217.816 193.083 218.695C189.56 218.988 186.523 219.1 184.605 219.09C182.698 219.097 179.665 218.992 176.144 218.7C175.979 217.819 175.806 216.962 175.625 216.129C173.083 204.425 168.976 197.204 163.068 194.052C151.515 187.89 143.693 192.278 140.506 197.908C138.407 201.615 137.929 206.329 139.194 210.841C140.52 215.571 143.599 219.583 147.864 222.141C153.054 225.253 160.356 227.04 167.087 228.067C167.732 233.488 168.185 240.078 168.331 248.085C168.602 263 167.671 277.439 167.106 284.594H152.411C152.259 277.925 151.743 266.697 150.005 260.603C145.392 244.428 129.958 228.806 129.303 228.149C129.272 228.117 129.239 228.086 129.208 228.055C113.133 212.725 104.281 192.049 104.281 169.835C104.281 125.5 140.318 89.4317 184.613 89.4317C213.757 89.4317 240.674 105.282 254.86 130.799C256.252 133.3 259.405 134.201 261.907 132.809C264.407 131.419 265.308 128.264 263.917 125.763C258.606 116.211 251.707 107.868 243.667 100.971H249.719C252.58 100.971 254.9 98.6511 254.9 95.7899C254.9 92.9286 252.58 90.6086 249.719 90.6086H242.81C239.949 90.6086 237.629 92.9279 237.629 95.7899C237.629 95.9381 237.639 96.0843 237.651 96.2297C223.76 86.212 207.128 80.1841 189.593 79.2189L173.676 76.9574C172.112 71.6204 169.983 66.4764 167.319 61.5978L179.238 45.7218C180.786 43.6596 180.582 40.7729 178.76 38.9493L158.856 19.0282C157.031 17.2019 154.14 16.9978 152.076 18.5497L136.218 30.4738C131.345 27.8084 126.207 25.6787 120.877 24.1136L118.089 4.45387C117.726 1.89875 115.539 0 112.959 0H84.8096C82.229 0 80.0427 1.89875 79.6801 4.45318L76.8913 24.1136C71.5611 25.6787 66.424 27.8084 61.5502 30.4738L45.6921 18.5477C43.6293 16.9964 40.7391 17.1998 38.9127 19.0261L19.0082 38.9472C17.186 40.7715 16.9819 43.6582 18.5304 45.7197L30.4497 61.5964C27.7857 66.475 25.6566 71.6183 24.0923 76.9554L4.4518 79.7456C1.89806 80.1096 0 82.2966 0 84.8758V113.048C0 115.628 1.89806 117.815 4.45249 118.178L24.0929 120.968C25.6566 126.305 27.7857 131.448 30.4504 136.327L18.5304 152.204C16.9826 154.266 17.186 157.153 19.0089 158.976L38.9134 178.897C40.7377 180.723 43.6286 180.927 45.6928 179.376L61.5509 167.45C66.4247 170.116 71.5618 172.245 76.8919 173.81L79.6808 193.471C80.0434 196.026 82.2304 197.924 84.8103 197.924H98.3112C102.876 212.05 110.909 224.905 122.001 235.5C122.794 236.305 136.242 250.126 140.04 263.443C141.762 269.478 142.118 284.49 142.111 289.765V289.769V289.773V307.11C142.111 318.556 150.268 328.13 161.069 330.321C163.257 341.096 172.796 349.23 184.2 349.23H185.027C196.431 349.23 205.97 341.096 208.158 330.321C218.96 328.13 227.117 318.556 227.117 307.11V300.374L233.695 301.309C234.629 304.269 235.817 307.139 237.248 309.893L229.923 319.651C228.374 321.713 228.579 324.6 230.401 326.424L243.726 339.76C245.551 341.586 248.442 341.791 250.506 340.239L260.251 332.911C263 334.341 265.866 335.529 268.822 336.464L270.536 348.547C270.899 351.102 273.085 353 275.665 353H294.511C297.092 353 299.278 351.101 299.64 348.547L301.354 336.465C304.309 335.53 307.176 334.342 309.925 332.911L319.67 340.24C321.733 341.792 324.624 341.587 326.449 339.761L339.775 326.424C341.597 324.6 341.801 321.713 340.253 319.652L332.928 309.894C334.359 307.14 335.546 304.27 336.481 301.31L348.55 299.595C351.104 299.232 353.002 297.045 353.002 294.465V275.605C353 273.024 351.102 270.837 348.548 270.475V270.475ZM211.035 203.193C212.291 202.523 214.652 201.43 216.679 201.43C217.922 201.43 219.041 201.841 219.703 203.011C221.121 205.518 220.412 210.627 216.033 213.253C212.989 215.078 208.59 216.359 203.974 217.247C206.441 206.708 209.683 203.914 211.035 203.193ZM153.193 213.253C148.814 210.627 148.104 205.518 149.524 203.011C150.186 201.841 151.304 201.43 152.548 201.43C154.575 201.43 156.936 202.523 158.192 203.193C159.544 203.914 162.787 206.711 165.254 217.252C160.643 216.365 156.244 215.082 153.193 213.253ZM89.3076 187.562L86.6705 168.97C86.3733 166.873 84.8296 165.168 82.7723 164.665C76.0977 163.032 69.7347 160.394 63.8627 156.825C62.0515 155.724 59.7521 155.838 58.0582 157.112L43.0612 168.389L29.5141 154.832L40.788 139.816C42.0587 138.123 42.1718 135.827 41.0742 134.017C37.5083 128.14 34.8725 121.772 33.2399 115.089C32.7373 113.032 31.033 111.487 28.9357 111.189L10.3618 108.551V89.3724L28.9363 86.7332C31.033 86.4354 32.738 84.891 33.2406 82.8337C34.8732 76.1508 37.509 69.783 41.0749 63.9061C42.1725 62.0963 42.0594 59.8011 40.7887 58.1078L29.5148 43.0922L43.0619 29.5348L58.0588 40.8122C59.7528 42.0863 62.0522 42.2 63.8634 41.099C69.7354 37.5304 76.0977 34.8932 82.773 33.2592C84.8303 32.7559 86.374 31.0509 86.6712 28.9543L89.3083 10.3618H108.461L111.098 28.9536C111.396 31.0502 112.939 32.7552 114.997 33.2585C121.672 34.8925 128.034 37.5311 133.906 41.099C135.718 42.2 138.017 42.0856 139.711 40.8122L154.707 29.5348L168.254 43.0922L156.981 58.1078C155.71 59.8004 155.596 62.0963 156.695 63.9061C160.003 69.3597 162.501 75.2393 164.149 81.3982C155.59 83.3818 147.493 86.5857 140.046 90.8086C137.674 70.4132 120.315 54.5275 99.3088 54.5275C85.546 54.5275 72.7711 61.3806 65.1361 72.86C63.5517 75.2421 64.1984 78.4584 66.5812 80.0434C68.9646 81.6278 72.1802 80.9811 73.7646 78.5983C79.4733 70.014 89.0229 64.8893 99.3088 64.8893C116.216 64.8893 129.97 78.6576 129.97 95.581C129.97 96.2042 129.947 96.8433 129.905 97.4921C119.928 105.068 111.562 114.659 105.413 125.655C103.401 126.064 101.355 126.272 99.3081 126.272C82.4014 126.272 68.6468 112.504 68.6468 95.5803C68.6468 92.719 66.3275 90.399 63.4655 90.399C60.6036 90.399 58.2843 92.719 58.2843 95.5803C58.2843 118.217 76.6872 136.634 99.3074 136.634C99.6074 136.634 99.9073 136.625 100.206 136.619C96.1491 146.91 93.9187 158.116 93.9187 169.833C93.9187 175.864 94.5026 181.792 95.6327 187.561H89.3076V187.562ZM237.248 260.175C235.816 262.93 234.628 265.8 233.694 268.76L228.114 269.553C228.393 267.136 228.744 264.993 229.186 263.444C230.044 260.435 231.398 257.402 232.984 254.496L237.248 260.175ZM178.692 247.982C178.569 241.097 178.214 234.817 177.632 229.189C181.57 229.445 184.287 229.456 184.605 229.449C184.925 229.446 187.652 229.445 191.594 229.189C191.011 234.816 190.657 241.096 190.534 247.982C190.268 262.897 191.134 277.023 191.722 284.592H177.504C178.092 277.024 178.958 262.897 178.692 247.982V247.982ZM185.026 338.868H184.199C178.734 338.868 174.032 335.535 172.013 330.793H197.212C195.194 335.535 190.492 338.868 185.026 338.868ZM216.754 307.11C216.754 314.455 210.784 320.431 203.448 320.431H165.778C158.441 320.431 152.473 314.455 152.473 307.11V294.954H216.754V307.11H216.754ZM342.638 289.967L331.675 291.525C329.577 291.823 327.873 293.367 327.37 295.425C326.319 299.729 324.621 303.83 322.325 307.615C321.227 309.425 321.34 311.72 322.611 313.414L329.267 322.279L322.299 329.252L313.448 322.597C311.753 321.322 309.455 321.208 307.644 322.31C303.863 324.608 299.765 326.306 295.466 327.359C293.409 327.862 291.866 329.567 291.568 331.664L290.012 342.638H280.162L278.605 331.663C278.308 329.566 276.764 327.861 274.707 327.358C270.407 326.306 266.31 324.607 262.529 322.31C260.719 321.209 258.419 321.323 256.725 322.597L247.874 329.252L240.905 322.279L247.561 313.414C248.832 311.721 248.945 309.425 247.847 307.615C245.551 303.829 243.853 299.728 242.802 295.425C242.299 293.368 240.595 291.823 238.498 291.525L227.534 289.967V280.101L238.498 278.543C240.595 278.245 242.299 276.701 242.802 274.643C243.853 270.34 245.551 266.239 247.847 262.453C248.946 260.643 248.832 258.348 247.561 256.654L240.905 247.789L247.874 240.816L256.725 247.472C258.419 248.746 260.718 248.859 262.529 247.758C266.31 245.46 270.408 243.762 274.707 242.71C276.764 242.206 278.307 240.501 278.605 238.405L280.162 227.43H290.012L291.568 238.405C291.865 240.501 293.408 242.206 295.466 242.71C299.765 243.762 303.863 245.461 307.644 247.758C309.455 248.859 311.753 248.746 313.448 247.472L322.299 240.816L329.267 247.789L322.611 256.654C321.34 258.348 321.227 260.643 322.325 262.453C324.621 266.238 326.319 270.339 327.37 274.643C327.873 276.7 329.577 278.245 331.675 278.543L342.638 280.101V289.967Z" fill="white"/>
<path d="M285.086 254.615C268.325 254.615 254.688 268.261 254.688 285.034C254.688 287.895 257.008 290.215 259.87 290.215C262.731 290.215 265.051 287.895 265.051 285.034C265.051 273.974 274.039 264.977 285.087 264.977C296.135 264.977 305.123 273.974 305.123 285.034C305.123 296.093 296.135 305.091 285.087 305.091C280.187 305.091 275.471 303.302 271.809 300.054C269.668 298.155 266.393 298.353 264.495 300.494C262.597 302.634 262.793 305.909 264.934 307.807C270.495 312.738 277.652 315.453 285.088 315.453C301.849 315.453 315.486 301.808 315.486 285.035C315.484 268.261 301.848 254.615 285.086 254.615V254.615Z" fill="white"/>
<path d="M266.989 100.97H273.897C276.758 100.97 279.078 98.6499 279.078 95.7887C279.078 92.9274 276.758 90.6074 273.897 90.6074H266.989C264.128 90.6074 261.808 92.9267 261.808 95.7887C261.808 98.6499 264.127 100.97 266.989 100.97Z" fill="white"/>
<path d="M311.601 105.975C313.311 107.01 314.943 108.202 316.454 109.516C318.731 111.498 322.312 111.068 324.069 108.622C325.607 106.481 325.243 103.429 323.257 101.699C321.299 99.9958 319.183 98.4515 316.966 97.1098C314.519 95.6282 311.333 96.4114 309.851 98.8596C308.369 101.309 309.153 104.494 311.601 105.975Z" fill="white"/>
<path d="M291.167 100.97C293.353 100.97 295.504 101.058 297.687 101.203C300.43 101.384 302.909 99.3527 303.213 96.6059C303.529 93.7619 301.478 91.2006 298.635 90.8862C296.149 90.6105 293.662 90.6084 291.167 90.6084C288.305 90.6084 285.985 92.9277 285.985 95.7896C285.985 98.6502 288.305 100.97 291.167 100.97Z" fill="white"/>
<path d="M300.006 170.136C298.046 170.5 296.035 170.696 294.026 170.72C291.164 170.753 288.873 173.1 288.906 175.962C288.939 178.802 291.253 181.081 294.085 181.081H294.147C296.747 181.051 299.354 180.796 301.895 180.324C304.709 179.803 306.566 177.099 306.044 174.286C305.523 171.472 302.821 169.612 300.006 170.136Z" fill="white"/>
<path d="M318.313 160.436C316.901 161.858 315.358 163.165 313.728 164.322C311.605 165.827 310.928 168.778 312.192 171.056C313.67 173.718 317.236 174.538 319.724 172.773C321.837 171.274 323.836 169.58 325.664 167.739C327.681 165.71 327.67 162.428 325.64 160.412C323.61 158.395 320.33 158.405 318.313 160.436V160.436Z" fill="white"/>
<path d="M329.408 154.505C332.062 155.478 335.085 154.074 336.056 151.424C336.949 148.988 337.634 146.456 338.093 143.9C338.599 141.083 336.726 138.39 333.91 137.884C331.096 137.379 328.4 139.251 327.894 142.067C327.541 144.035 327.013 145.983 326.326 147.857C325.342 150.545 326.721 153.52 329.408 154.505Z" fill="white"/>
<path d="M325.367 121.486C326.191 123.308 326.859 125.213 327.356 127.149C328.078 129.963 331.069 131.647 333.852 130.828C336.488 130.053 338.073 127.231 337.393 124.576C336.749 122.06 335.879 119.585 334.809 117.217C333.63 114.61 330.562 113.451 327.953 114.63C325.346 115.81 324.188 118.879 325.367 121.486V121.486Z" fill="white"/>
<path d="M24.4547 213.75C21.781 212.733 18.7874 214.076 17.7704 216.751C16.8479 219.176 16.1323 221.699 15.6414 224.249C15.1016 227.059 16.941 229.775 19.7512 230.315C20.0815 230.378 20.4103 230.409 20.7351 230.409C23.1695 230.409 25.3406 228.685 25.817 226.205C26.1942 224.242 26.7457 222.301 27.4552 220.434C28.4728 217.759 27.1291 214.766 24.4547 213.75V213.75Z" fill="white"/>
<path d="M41.6783 262.49C39.9809 261.435 38.362 260.224 36.8666 258.891C34.7314 256.987 31.4558 257.175 29.5515 259.31C27.6472 261.446 27.8355 264.721 29.9714 266.626C31.9087 268.352 34.0061 269.921 36.2061 271.29C38.7971 272.901 42.3071 271.866 43.6198 269.119C44.7429 266.769 43.888 263.864 41.6783 262.49Z" fill="white"/>
<path d="M86.1667 267.714H79.2584C76.3972 267.714 74.0771 270.034 74.0771 272.895C74.0771 275.756 76.3972 278.076 79.2584 278.076H86.1667C89.0279 278.076 91.3479 275.756 91.3479 272.895C91.3479 270.034 89.0286 267.714 86.1667 267.714Z" fill="white"/>
<path d="M110.345 267.714H103.437C100.575 267.714 98.2554 270.034 98.2554 272.895C98.2554 275.756 100.575 278.076 103.437 278.076H110.345C113.206 278.076 115.526 275.756 115.526 272.895C115.526 270.034 113.206 267.714 110.345 267.714Z" fill="white"/>
<path d="M134.523 267.714H127.614C124.753 267.714 122.433 270.034 122.433 272.895C122.433 275.756 124.753 278.076 127.614 278.076H134.523C137.384 278.076 139.704 275.756 139.704 272.895C139.704 270.034 137.385 267.714 134.523 267.714Z" fill="white"/>
<path d="M28.0984 246.815C27.2973 244.983 26.6513 243.07 26.1783 241.128C25.5013 238.348 22.698 236.643 19.9181 237.32C17.1382 237.997 15.4332 240.8 16.1102 243.58C16.7245 246.102 17.5643 248.589 18.6054 250.969C19.796 253.692 23.1468 254.861 25.7771 253.471C28.1433 252.221 29.1705 249.266 28.0984 246.815V246.815Z" fill="white"/>
<path d="M61.9887 267.714C59.8948 267.714 57.8113 267.708 55.7285 267.45C52.8865 267.101 50.3025 269.12 49.9529 271.959C49.6034 274.799 51.6214 277.385 54.4619 277.735C56.966 278.043 59.4715 278.076 61.9894 278.076C64.8506 278.076 67.1706 275.756 67.1706 272.894C67.1699 270.034 64.8499 267.714 61.9887 267.714V267.714Z" fill="white"/>
<path d="M31.99 209.439C33.3007 209.439 34.6127 208.944 35.6214 207.952C37.0499 206.549 38.6081 205.259 40.2531 204.122C42.6062 202.495 43.195 199.268 41.5672 196.914C39.9394 194.562 36.7135 193.972 34.359 195.6C32.2279 197.074 30.2085 198.744 28.358 200.563C25.1245 203.74 27.4369 209.439 31.99 209.439Z" fill="white"/>
<path d="M54.0433 198.474C56.0055 198.134 58.0208 197.962 60.0312 197.962C62.8925 197.962 65.2125 195.643 65.2125 192.781C65.2125 189.92 62.8925 187.6 60.0312 187.6C57.4299 187.6 54.8203 187.823 52.2756 188.264C49.5316 188.739 47.6121 191.403 48.0396 194.156C48.4788 196.984 51.2207 198.962 54.0433 198.474V198.474Z" fill="white"/>
</svg>
