<svg id="Capa_1" enable-background="new 0 0 512 512" height="512" viewBox="0 0 512 512" width="512" xmlns="http://www.w3.org/2000/svg"><g><path d="m505.543 392.303-17.505-2.487c-1.355-4.295-3.078-8.457-5.154-12.451l10.625-14.153c2.245-2.991 1.95-7.178-.694-9.823l-19.328-19.344c-2.647-2.649-6.84-2.945-9.833-.694l-14.134 10.629c-3.988-2.075-8.145-3.798-12.432-5.154l-2.485-17.524c-.525-3.706-3.698-6.459-7.44-6.459h-27.333c-3.743 0-6.914 2.754-7.44 6.459l-2.486 17.524c-4.287 1.356-8.443 3.079-12.432 5.154l-12.252-9.214c18.39-20.216 29.814-45.165 33.101-72.116h3.181c4.15 0 7.515-3.365 7.515-7.515s-3.364-7.515-7.515-7.515h-2.205c.004-.43.016-.858.016-1.288 0-11.663-1.526-23.236-4.537-34.397-1.081-4.007-5.203-6.379-9.213-5.298-4.007 1.081-6.379 5.206-5.298 9.213 2.666 9.885 4.019 20.14 4.019 30.482 0 32.22-12.84 62.209-36.154 84.443-.042.041-.085.082-.126.124-.949.948-23.311 23.497-30.04 47.085-1.486 5.211-2.355 13.01-2.863 20.517-.068.405-.108.82-.108 1.243v.424c-.284 4.632-.436 9.066-.517 12.613h-21.314c-.82-10.379-2.17-31.321-1.777-52.954.21-11.612.869-21.171 1.804-29.034 9.765-1.489 20.354-4.081 27.881-8.594 13.652-8.185 16.54-24.783 10.673-35.148-4.623-8.167-15.968-14.531-32.724-5.593-8.568 4.57-14.526 15.045-18.213 32.02-.262 1.206-.513 2.448-.753 3.723-5.11.425-9.516.587-12.297.572-2.767.011-7.166-.142-12.272-.565-.24-1.278-.491-2.521-.753-3.729-3.687-16.976-9.644-27.45-18.213-32.021-16.757-8.937-28.102-2.573-32.725 5.593-3.044 5.377-3.737 12.214-1.903 18.758 1.923 6.86 6.389 12.68 12.576 16.39 7.527 4.513 18.118 7.106 27.881 8.595.935 7.863 1.593 17.421 1.804 29.034.393 21.634-.957 42.576-1.777 52.954h-21.314c-.22-9.673-.968-25.958-3.489-34.797-6.691-23.46-29.077-46.119-30.026-47.072-.045-.046-.093-.092-.139-.137-23.315-22.234-36.154-52.223-36.154-84.443 0-64.304 52.269-116.619 116.516-116.619 42.271 0 81.312 22.99 101.888 60 2.018 3.628 6.592 4.934 10.22 2.916 3.627-2.017 4.933-6.592 2.916-10.22-7.703-13.854-17.71-25.955-29.371-35.959h8.777c4.15 0 7.515-3.365 7.515-7.515s-3.365-7.515-7.515-7.515h-10.02c-4.15 0-7.515 3.364-7.515 7.515 0 .215.014.427.032.638-20.148-14.53-44.272-23.273-69.704-24.673l-23.087-3.28c-2.269-7.741-5.356-15.202-9.221-22.278l17.288-23.027c2.246-2.991 1.95-7.178-.693-9.823l-28.87-28.894c-2.647-2.649-6.84-2.945-9.833-.694l-23.001 17.295c-7.068-3.866-14.52-6.955-22.251-9.225l-4.044-28.515c-.527-3.706-3.698-6.46-7.441-6.46h-40.828c-3.743 0-6.914 2.754-7.44 6.459l-4.045 28.516c-7.731 2.27-15.182 5.359-22.251 9.225l-23.001-17.298c-2.992-2.25-7.184-1.955-9.833.694l-28.87 28.894c-2.643 2.646-2.939 6.833-.693 9.823l17.288 23.028c-3.864 7.076-6.952 14.536-9.221 22.277l-28.487 4.047c-3.704.528-6.457 3.7-6.457 7.441v40.862c0 3.742 2.753 6.914 6.458 7.44l28.487 4.047c2.268 7.741 5.356 15.201 9.221 22.277l-17.289 23.028c-2.245 2.991-1.95 7.178.694 9.823l28.87 28.894c2.646 2.648 6.839 2.944 9.833.694l23.001-17.297c7.069 3.866 14.52 6.955 22.251 9.225l4.045 28.516c.526 3.706 3.698 6.459 7.44 6.459h19.582c6.621 20.488 18.272 39.134 34.361 54.501 1.149 1.168 20.655 21.214 26.164 40.53 2.497 8.753 3.014 30.526 3.003 38.177v.006.006 25.146c0 16.602 11.831 30.488 27.498 33.666 3.173 15.628 17.009 27.426 33.549 27.426h1.2c16.54 0 30.376-11.798 33.549-27.426 15.668-3.178 27.499-17.064 27.499-33.666v-9.77l9.541 1.356c1.355 4.293 3.078 8.456 5.154 12.451l-10.625 14.153c-2.246 2.991-1.95 7.178.693 9.823l19.328 19.344c2.646 2.648 6.839 2.945 9.833.694l14.134-10.629c3.988 2.075 8.144 3.798 12.432 5.154l2.486 17.525c.526 3.706 3.698 6.459 7.44 6.459h27.334c3.743 0 6.915-2.754 7.44-6.459l2.485-17.524c4.287-1.356 8.444-3.079 12.432-5.154l14.134 10.629c2.993 2.251 7.186 1.955 9.833-.694l19.328-19.344c2.643-2.646 2.939-6.833.694-9.823l-10.625-14.153c2.075-3.994 3.798-8.157 5.154-12.451l17.505-2.487c3.704-.526 6.457-3.698 6.457-7.44v-27.356c-.003-3.743-2.756-6.915-6.46-7.441zm-199.452-97.587c1.821-.972 5.245-2.557 8.186-2.557 1.802 0 3.425.596 4.385 2.293 2.058 3.636 1.029 11.046-5.322 14.855-4.416 2.648-10.796 4.506-17.491 5.793 3.578-15.285 8.281-19.338 10.242-20.384zm-83.896 14.591c-6.351-3.809-7.381-11.219-5.322-14.855.961-1.697 2.582-2.293 4.386-2.293 2.941 0 6.365 1.585 8.186 2.557 1.961 1.046 6.665 5.103 10.244 20.392-6.689-1.287-13.069-3.148-17.494-5.801zm-92.661-37.262-3.825-26.967c-.431-3.041-2.67-5.514-5.654-6.244-9.681-2.369-18.91-6.195-27.427-11.371-2.627-1.597-5.962-1.432-8.419.416l-21.752 16.357-19.649-19.664 16.352-21.78c1.843-2.455 2.007-5.785.415-8.41-5.172-8.525-8.995-17.761-11.363-27.454-.729-2.984-3.201-5.224-6.243-5.656l-26.94-3.827v-27.817l26.941-3.828c3.041-.432 5.514-2.672 6.243-5.656 2.368-9.693 6.191-18.929 11.363-27.453 1.592-2.625 1.428-5.954-.415-8.41l-16.352-21.779 19.649-19.664 21.752 16.357c2.457 1.848 5.792 2.013 8.419.416 8.517-5.176 17.745-9.001 27.427-11.371 2.984-.73 5.223-3.203 5.654-6.244l3.825-26.967h27.78l3.825 26.966c.432 3.041 2.67 5.514 5.654 6.244 9.682 2.37 18.91 6.197 27.427 11.372 2.628 1.597 5.962 1.431 8.419-.416l21.751-16.357 19.649 19.664-16.351 21.779c-1.844 2.455-2.008 5.785-.415 8.41 4.799 7.91 8.421 16.438 10.812 25.371-12.415 2.877-24.159 7.524-34.96 13.649-3.44-29.582-28.618-52.623-59.086-52.623-19.962 0-38.491 9.94-49.565 26.59-2.298 3.455-1.36 8.12 2.096 10.419 3.457 2.298 8.121 1.36 10.419-2.096 8.28-12.451 22.131-19.884 37.05-19.884 24.522 0 44.472 19.97 44.472 44.516 0 .904-.033 1.831-.095 2.772-14.471 10.988-26.605 24.899-35.523 40.848-2.919.594-5.886.895-8.855.895-24.522 0-44.472-19.97-44.472-44.516 0-4.15-3.364-7.515-7.515-7.515s-7.515 3.365-7.515 7.515c0 32.833 26.692 59.545 59.501 59.545.435 0 .87-.012 1.304-.022-5.885 14.927-9.12 31.18-9.12 48.175 0 8.747.847 17.345 2.486 25.713h-9.174zm214.576 105.32c-2.076 3.995-3.799 8.158-5.154 12.451l-8.094 1.15c.405-3.505.914-6.613 1.555-8.86 1.245-4.365 3.208-8.764 5.509-12.978zm-84.931-17.685c-.178-9.987-.693-19.096-1.537-27.258 5.711.371 9.653.386 10.113.377.465-.005 4.42-.006 10.137-.378-.845 8.162-1.359 17.271-1.537 27.258-.386 21.633.871 42.122 1.723 53.1h-20.622c.853-10.977 2.109-31.466 1.723-53.099zm9.188 131.823h-1.2c-7.927 0-14.746-4.834-17.675-11.712h36.549c-2.927 6.878-9.746 11.712-17.674 11.712zm46.018-46.063c0 10.654-8.658 19.321-19.299 19.321h-54.638c-10.641 0-19.298-8.667-19.298-19.321v-17.631h93.236v17.631zm182.586-24.864-15.902 2.259c-3.042.432-5.514 2.672-6.243 5.657-1.525 6.242-3.987 12.19-7.318 17.681-1.592 2.625-1.428 5.954.415 8.41l9.654 12.858-10.107 10.115-12.837-9.654c-2.458-1.849-5.792-2.014-8.419-.416-5.484 3.333-11.427 5.797-17.663 7.323-2.983.73-5.222 3.203-5.654 6.244l-2.257 15.918h-14.286l-2.258-15.919c-.431-3.041-2.67-5.514-5.654-6.244-6.237-1.526-12.179-3.99-17.663-7.322-2.626-1.596-5.961-1.431-8.419.416l-12.838 9.654-10.107-10.115 9.654-12.858c1.843-2.455 2.007-5.785.415-8.41-3.331-5.492-5.793-11.44-7.318-17.681-.729-2.984-3.201-5.225-6.243-5.657l-15.902-2.259v-14.311l15.902-2.259c3.042-.432 5.514-2.672 6.243-5.657 1.525-6.241 3.987-12.19 7.318-17.681 1.593-2.625 1.428-5.954-.415-8.41l-9.654-12.858 10.107-10.115 12.838 9.654c2.458 1.848 5.792 2.012 8.419.416 5.484-3.333 11.427-5.797 17.663-7.323 2.983-.73 5.222-3.203 5.654-6.244l2.258-15.918h14.286l2.257 15.918c.431 3.041 2.67 5.514 5.654 6.244 6.236 1.527 12.179 3.991 17.663 7.323 2.627 1.597 5.961 1.432 8.419-.416l12.838-9.654 10.106 10.115-9.654 12.858c-1.843 2.456-2.007 5.785-.415 8.41 3.331 5.49 5.793 11.439 7.318 17.681.729 2.984 3.201 5.225 6.243 5.657l15.902 2.259z"/><path d="m413.497 369.3c-24.311 0-44.09 19.792-44.09 44.12 0 4.15 3.364 7.515 7.515 7.515 4.15 0 7.515-3.365 7.515-7.515 0-16.041 13.037-29.091 29.061-29.091s29.06 13.05 29.06 29.091-13.036 29.091-29.06 29.091c-7.107 0-13.947-2.594-19.259-7.305-3.106-2.755-7.855-2.468-10.608.637-2.754 3.105-2.469 7.855.637 10.608 8.065 7.152 18.446 11.09 29.231 11.09 24.311 0 44.09-19.792 44.09-44.12-.003-24.329-19.781-44.121-44.092-44.121z"/><path d="m387.247 146.45h10.02c4.15 0 7.515-3.365 7.515-7.515s-3.365-7.515-7.515-7.515h-10.02c-4.15 0-7.515 3.364-7.515 7.515 0 4.15 3.364 7.515 7.515 7.515z"/><path d="m451.954 153.709c2.48 1.501 4.848 3.229 7.039 5.135 3.303 2.875 8.496 2.251 11.045-1.297 2.231-3.105 1.703-7.532-1.178-10.04-2.839-2.471-5.909-4.711-9.124-6.657-3.549-2.149-8.171-1.013-10.32 2.538-2.149 3.552-1.013 8.172 2.538 10.321z"/><path d="m422.315 146.45c3.171 0 6.291.128 9.457.337 3.979.263 7.575-2.683 8.016-6.667.457-4.125-2.517-7.84-6.641-8.296-3.605-.4-7.212-.403-10.832-.403-4.15 0-7.515 3.364-7.515 7.515 0 4.149 3.365 7.514 7.515 7.514z"/><path d="m435.136 246.77c-2.842.527-5.76.812-8.674.846-4.15.049-7.474 3.453-7.426 7.603.049 4.12 3.404 7.426 7.512 7.426h.09c3.772-.044 7.552-.414 11.238-1.098 4.081-.757 6.775-4.679 6.018-8.759-.756-4.081-4.675-6.779-8.758-6.018z"/><path d="m461.689 232.7c-2.048 2.062-4.286 3.958-6.651 5.636-3.078 2.184-4.06 6.464-2.227 9.768 2.143 3.861 7.316 5.05 10.924 2.49 3.065-2.174 5.964-4.631 8.616-7.301 2.925-2.944 2.909-7.703-.035-10.627-2.944-2.926-7.702-2.911-10.627.034z"/><path d="m477.782 224.098c3.849 1.41 8.233-.626 9.642-4.47 1.295-3.533 2.289-7.205 2.955-10.913.734-4.085-1.983-7.991-6.068-8.725-4.081-.733-7.991 1.983-8.725 6.067-.513 2.854-1.278 5.68-2.275 8.398-1.427 3.898.574 8.214 4.471 9.643z"/><path d="m471.92 176.206c1.195 2.642 2.165 5.406 2.885 8.213 1.047 4.082 5.386 6.524 9.423 5.337 3.823-1.125 6.122-5.217 5.136-9.069-.935-3.648-2.197-7.239-3.749-10.673-1.709-3.781-6.16-5.462-9.943-3.752-3.782 1.711-5.462 6.162-3.752 9.944z"/><path d="m35.47 310.028c-3.878-1.474-8.22.474-9.695 4.353-1.338 3.518-2.376 7.177-3.088 10.876-.783 4.075 1.885 8.015 5.961 8.798.479.092.956.137 1.427.137 3.531 0 6.68-2.501 7.371-6.098.547-2.847 1.347-5.663 2.376-8.37 1.476-3.88-.473-8.221-4.352-9.696z"/><path d="m60.451 380.722c-2.462-1.531-4.81-3.287-6.979-5.221-3.097-2.761-7.848-2.489-10.61.609s-2.489 7.848.609 10.61c2.81 2.504 5.852 4.78 9.043 6.765 3.758 2.337 8.849.836 10.753-3.149 1.629-3.408.389-7.621-2.816-9.614z"/><path d="m124.978 388.299h-10.02c-4.15 0-7.515 3.365-7.515 7.515s3.365 7.515 7.515 7.515h10.02c4.15 0 7.515-3.365 7.515-7.515s-3.364-7.515-7.515-7.515z"/><path d="m160.047 388.299h-10.02c-4.15 0-7.515 3.365-7.515 7.515s3.365 7.515 7.515 7.515h10.02c4.15 0 7.515-3.365 7.515-7.515s-3.365-7.515-7.515-7.515z"/><path d="m195.115 388.299h-10.02c-4.15 0-7.515 3.365-7.515 7.515s3.365 7.515 7.515 7.515h10.02c4.15 0 7.515-3.365 7.515-7.515s-3.364-7.515-7.515-7.515z"/><path d="m40.755 357.988c-1.162-2.658-2.099-5.433-2.785-8.249-.982-4.032-5.048-6.505-9.08-5.523s-6.505 5.047-5.523 9.08c.891 3.658 2.109 7.264 3.619 10.716 1.727 3.95 6.587 5.646 10.402 3.63 3.432-1.814 4.922-6.1 3.367-9.654z"/><path d="m89.91 388.299c-3.037 0-6.059-.009-9.08-.382-4.122-.506-7.87 2.421-8.377 6.54s2.42 7.869 6.54 8.377c3.632.447 7.266.494 10.918.494 4.15 0 7.515-3.365 7.515-7.515-.001-4.149-3.366-7.514-7.516-7.514z"/><path d="m46.399 303.775c1.901 0 3.804-.717 5.267-2.156 2.072-2.036 4.332-3.906 6.718-5.555 3.413-2.361 4.267-7.041 1.906-10.455-2.361-3.412-7.04-4.268-10.455-1.906-3.091 2.138-6.02 4.56-8.704 7.198-4.69 4.609-1.336 12.874 5.268 12.874z"/><path d="m78.386 287.872c2.846-.493 5.769-.743 8.685-.743 4.15 0 7.515-3.364 7.515-7.515 0-4.15-3.365-7.515-7.515-7.515-3.773 0-7.558.324-11.249.963-3.98.689-6.764 4.554-6.144 8.547.637 4.101 4.614 6.97 8.708 6.263z"/></g></svg>